<svg xmlns="http://www.w3.org/2000/svg" viewBox="0 0 1000 1000">
	<g transform="scale(0.6)translate(330 330)">
      <rect fill="hsl(240,100%,90%)" transform="rotate(00 500 500)" x="180" y="180" width="640" height="640" rx="120"/>
	   <rect fill="hsl(240,100%,90%)" transform="rotate(30 500 500)" x="180" y="180" width="640" height="640" rx="120"/>
	   <rect fill="hsl(240,100%,90%)" transform="rotate(60 500 500)" x="180" y="180" width="640" height="640" rx="120"/>
	   <path fill="hsl(240,100%,30%)" transform="rotate(45 500 500)" d="M525.00,725.00Q575.00,675.00,575.00,600.00L575.00,366.67L425.00,366.67L425.00,600.00Q425.00,675.00,475.00,725.00Q500.00,875.00,525.00,725.00z M575.00,333.33L575.00,250.00Q575.00,200.00,525.00,200.00L475.00,200.00Q425.00,200.00,425.00,250.00L425.00,333.33L575.00,333.33z"/>
   </g>
</svg>